# xmcd
#
# Track frame offsets: 
#        150
#        15075
#        32964
#        46342
#        60412
#        73525
#        88051
#        102833
#        118859
#        135211
#
# Disc length: 2002 seconds
#
# Revision: 0
# Processed by: cddbd v1.5.2PL0 Copyright (c) Steve Scherf et al.
# Submitted via: ExactAudioCopy v1.0b1
#
DISCID=7707d00a
DTITLE=Champion Jack Dupree - Champion Jack's Natural And Soulful Blue
DTITLE=s
DYEAR=1961
DGENRE=Blues
TTITLE0=Seafood Blues
TTITLE1=Death Of Big Bill
TTITLE2=Don't Leave Me Mary
TTITLE3=Rampart Street Special
TTITLE4=How Long Blues
TTITLE5=Bad Life
TTITLE6=Mother-In-Law Blues
TTITLE7=Slow Drag
TTITLE8=Dennis Rag
TTITLE9=Bad Luck Bound To Change
EXTD=
EXTT0=
EXTT1=
EXTT2=
EXTT3=
EXTT4=
EXTT5=
EXTT6=
EXTT7=
EXTT8=
EXTT9=
PLAYORDER=
